<svg xmlns="http://www.w3.org/2000/svg" viewBox="0 0 64 64" role="img" aria-label="opengist-mcp">
  <defs>
    <linearGradient id="g" x1="0" y1="0" x2="1" y2="1">
      <stop offset="0%" stop-color="#6366f1" />
      <stop offset="100%" stop-color="#06b6d4" />
    </linearGradient>
  </defs>
  <rect width="64" height="64" rx="14" fill="url(#g)" />
  <!-- A gist: a document with a git commit node on it. -->
  <path d="M20 14h16l10 10v26a4 4 0 0 1-4 4H20a4 4 0 0 1-4-4V18a4 4 0 0 1 4-4z"
        fill="#ffffff" fill-opacity="0.94" />
  <path d="M36 14l10 10H38a2 2 0 0 1-2-2z" fill="#c7d2fe" />
  <g stroke="#4338ca" stroke-width="2.6" stroke-linecap="round" fill="none">
    <path d="M32 30v14" />
    <path d="M32 37h7a3 3 0 0 0 3-3" stroke-opacity="0" />
  </g>
  <circle cx="32" cy="30" r="4.4" fill="#ffffff" stroke="#4338ca" stroke-width="2.6" />
  <circle cx="32" cy="45" r="4.4" fill="#ffffff" stroke="#4338ca" stroke-width="2.6" />
</svg>
